<?xml version="1.0" standalone="no"?>
<!DOCTYPE svg PUBLIC "-//W3C//DTD SVG 20010904//EN"
 "http://www.w3.org/TR/2001/REC-SVG-20010904/DTD/svg10.dtd">
<svg version="1.0" xmlns="http://www.w3.org/2000/svg"
 width="512.000000pt" height="512.000000pt" viewBox="0 0 512.000000 512.000000"
 preserveAspectRatio="xMidYMid meet">

<g transform="translate(0.000000,512.000000) scale(0.100000,-0.100000)"
fill="#000000" stroke="none">
<path d="M2440 4474 c-14 -2 -52 -9 -85 -15 -357 -62 -679 -312 -829 -641
-200 -438 -109 -944 229 -1283 306 -305 758 -412 1165 -275 413 138 712 500
770 933 77 577 -308 1129 -877 1258 -84 19 -316 33 -373 23z m290 -128 c82
-14 91 -35 25 -60 -92 -35 -148 -111 -149 -198 0 -97 56 -116 203 -69 133 42
159 41 267 -14 98 -50 162 -58 232 -29 37 15 37 15 60 -13 26 -32 102 -155
102 -166 0 -11 -49 -8 -133 8 -43 8 -122 15 -175 15 -85 1 -107 5 -172 31
-102 42 -200 50 -257 20 -84 -42 -118 -142 -71 -210 30 -45 66 -65 158 -90 41
-11 80 -28 87 -37 7 -10 13 -37 13 -61 0 -75 35 -120 145 -186 61 -36 134
-104 154 -144 6 -12 11 -70 11 -130 0 -143 10 -174 77 -244 l55 -58 -42 -51
c-95 -113 -275 -232 -433 -286 -676 -231 -1382 302 -1344 1015 6 116 25 221
39 221 5 0 16 -17 24 -37 51 -131 116 -165 249 -132 92 23 123 90 86 186 -12
31 -19 59 -15 62 3 3 52 5 107 3 144 -3 197 10 241 59 20 21 36 40 36 42 0 1
5 44 10 96 5 54 14 99 22 106 7 7 36 20 65 29 70 23 113 71 113 128 0 37 -6
47 -48 88 -27 26 -69 55 -95 66 -26 10 -47 22 -47 26 0 23 288 34 400 14z
m303 -104 c48 -26 119 -72 158 -102 l71 -55 -39 -3 c-30 -2 -52 5 -97 32 -101
61 -214 70 -326 26 -28 -11 -56 -20 -62 -20 -22 0 32 46 69 59 57 21 80 39 98
77 9 19 21 34 28 34 7 0 52 -22 100 -48z m-870 13 c10 -7 42 -19 70 -25 61
-14 169 -69 161 -81 -2 -5 -22 -13 -42 -19 -50 -13 -97 -44 -118 -75 -10 -15
-22 -67 -29 -126 -7 -65 -17 -104 -26 -110 -8 -5 -73 -9 -144 -9 -107 0 -137
-3 -165 -18 -67 -36 -85 -115 -44 -194 19 -37 8 -48 -47 -48 -35 0 -37 2 -63
64 -15 34 -42 78 -61 96 l-34 33 40 77 c82 159 252 331 407 414 77 41 72 40
95 21z m813 -524 c78 -26 107 -31 187 -31 52 0 131 -7 174 -15 43 -8 103 -15
134 -15 l56 0 16 -57 c67 -242 41 -507 -72 -730 -17 -35 -35 -63 -39 -63 -11
1 -46 33 -65 60 -14 20 -17 47 -17 140 0 106 -2 120 -28 175 -33 68 -110 145
-195 194 -73 42 -86 58 -95 128 -14 104 -54 141 -179 169 -75 16 -99 33 -89
59 15 40 65 37 212 -14z"/>
<path d="M2219 3421 c-50 -16 -69 -32 -80 -71 -13 -44 -16 -45 -110 -55 -70
-8 -116 -35 -135 -82 -21 -50 -19 -143 4 -195 24 -55 98 -123 150 -139 l40
-12 -34 -44 c-53 -70 -59 -161 -13 -228 36 -52 73 -69 168 -75 l85 -5 26 -45
c38 -65 80 -90 152 -90 131 0 175 61 128 176 -12 28 -11 34 19 78 39 56 61
107 61 139 0 13 -11 46 -25 73 -14 27 -25 56 -25 65 0 8 20 41 44 73 51 65 62
102 46 151 -21 63 -66 89 -195 111 -46 8 -52 13 -73 54 -13 25 -31 53 -40 64
-39 43 -140 73 -193 57z m94 -131 c14 -11 31 -36 37 -55 19 -58 68 -92 154
-106 110 -17 116 -25 70 -80 -71 -85 -81 -149 -37 -231 24 -44 25 -52 13 -71
-65 -102 -80 -134 -80 -170 0 -21 5 -47 11 -58 9 -18 8 -20 -17 -17 -21 2 -34
14 -53 47 -41 70 -66 83 -171 90 -98 7 -110 14 -110 63 0 18 13 42 34 65 47
53 59 80 52 117 -8 44 -44 76 -119 106 -54 22 -65 31 -85 70 -21 41 -24 91 -7
109 3 2 48 10 101 17 111 14 144 35 144 91 0 40 23 44 63 13z"/>
<path d="M877 3577 c-53 -17 -106 -63 -127 -111 -17 -37 -19 -95 -25 -636 -8
-671 -5 -731 51 -900 42 -125 51 -143 284 -520 l183 -295 -28 -20 c-60 -43
-67 -52 -67 -76 -1 -26 182 -332 215 -362 12 -10 31 -17 42 -15 21 4 713 426
748 456 9 8 17 26 17 40 0 14 -45 99 -102 193 -117 191 -134 206 -191 170 -19
-12 -37 -21 -39 -21 -3 0 -8 35 -11 78 -7 92 -36 191 -84 286 -62 124 -373
620 -406 649 -37 32 -127 62 -163 53 l-24 -6 0 442 c0 409 -2 446 -19 484 -23
51 -81 99 -137 113 -52 13 -68 13 -117 -2z m122 -133 l31 -26 0 -470 c0 -449
-1 -472 -19 -502 -30 -48 -42 -113 -30 -165 12 -56 266 -470 296 -484 17 -7
28 -6 47 6 50 33 46 44 -93 270 -71 117 -132 224 -136 238 -9 37 18 86 59 106
38 17 72 13 104 -14 27 -23 356 -558 393 -639 55 -120 72 -242 48 -337 -10
-41 -15 -45 -167 -139 -87 -53 -165 -100 -174 -103 -12 -5 -58 63 -208 307
-210 341 -248 412 -282 533 -23 79 -23 85 -23 733 l0 654 33 29 c41 37 80 38
121 3z m968 -2176 c34 -56 60 -105 57 -109 -6 -11 -590 -369 -601 -369 -15 0
-135 199 -128 211 4 5 23 18 43 29 20 11 152 92 292 179 140 88 260 160 265
160 6 1 38 -45 72 -101z"/>
<path d="M4117 3577 c-53 -17 -106 -63 -128 -111 -17 -38 -19 -73 -19 -484 l0
-442 -24 6 c-36 9 -126 -21 -163 -53 -33 -29 -344 -525 -406 -649 -48 -95 -77
-194 -84 -286 -3 -43 -7 -78 -9 -78 -2 0 -21 9 -42 20 -32 17 -44 19 -63 10
-30 -14 -229 -337 -229 -372 0 -14 8 -32 18 -40 33 -29 727 -452 747 -456 12
-2 30 5 42 15 33 30 216 336 216 362 0 23 -17 41 -74 81 -21 16 -20 18 161
310 233 377 242 395 284 520 56 169 59 229 51 900 -6 494 -10 601 -22 633 -20
49 -83 102 -138 116 -53 13 -69 13 -118 -2z m123 -135 l28 -28 7 -205 c4 -112
5 -406 3 -654 -6 -600 9 -550 -308 -1063 -135 -220 -197 -312 -207 -308 -38
15 -333 203 -339 216 -3 8 -8 51 -11 95 -6 90 11 169 56 269 37 81 366 616
393 639 32 27 66 31 104 14 41 -20 68 -69 59 -106 -4 -14 -65 -121 -136 -238
-139 -226 -143 -237 -93 -270 19 -12 30 -13 47 -6 30 14 283 428 296 484 12
51 0 117 -30 165 -18 30 -19 53 -19 502 l0 470 31 26 c41 35 83 34 119 -2z
m-970 -2096 c19 -12 130 -81 245 -152 212 -130 265 -162 299 -186 17 -13 15
-19 -44 -116 -35 -56 -67 -102 -72 -102 -11 0 -576 345 -595 364 -10 9 1 34
50 114 34 56 67 102 72 102 6 0 26 -11 45 -24z"/>
</g>
</svg>
