<?xml version="1.0" standalone="no"?>
<!DOCTYPE svg PUBLIC "-//W3C//DTD SVG 20010904//EN"
 "http://www.w3.org/TR/2001/REC-SVG-20010904/DTD/svg10.dtd">
<svg version="1.0" xmlns="http://www.w3.org/2000/svg"
 width="512.000000pt" height="512.000000pt" viewBox="0 0 512.000000 512.000000"
 preserveAspectRatio="xMidYMid meet">

<g transform="translate(0.000000,512.000000) scale(0.100000,-0.100000)"
fill="#000000" stroke="none">
<path d="M4281 4719 c-68 -21 -114 -63 -168 -155 -47 -80 -50 -89 -35 -99 41
-29 395 -236 397 -233 22 27 99 177 106 209 13 57 -4 136 -41 186 -54 74 -176
117 -259 92z"/>
<path d="M3708 3883 c-146 -247 -276 -465 -288 -485 l-22 -38 279 0 278 0 193
323 c105 177 203 341 217 363 l25 42 -203 121 c-112 66 -205 121 -208 121 -2
0 -124 -201 -271 -447z"/>
<path d="M2135 4215 c-210 -57 -393 -216 -477 -416 -29 -69 -29 -71 -14 -117
22 -66 36 -165 36 -249 l0 -73 189 0 190 0 45 64 c53 73 88 145 112 231 14 47
18 114 22 318 l4 257 -29 -1 c-15 0 -50 -6 -78 -14z"/>
<path d="M882 3889 l4 -264 30 -87 c17 -47 43 -107 58 -132 l27 -46 261 0 261
0 -6 109 c-10 194 -74 338 -212 476 -114 114 -244 184 -375 201 l-52 7 4 -264z"/>
<path d="M428 3169 l-31 -30 6 -202 c3 -111 13 -247 21 -301 144 -908 830
-1622 1726 -1795 1169 -226 2296 534 2529 1704 27 137 41 292 41 458 l0 139
-29 29 -29 29 -2102 0 -2102 0 -30 -31z m2295 -315 c57 -19 128 -93 145 -152
7 -24 12 -108 12 -216 l0 -176 178 0 c216 0 251 -9 315 -80 56 -62 67 -102 67
-240 0 -145 -11 -182 -75 -245 -68 -68 -95 -75 -309 -75 l-176 0 0 -176 c0
-214 -7 -241 -75 -309 -63 -64 -100 -75 -245 -75 -145 0 -182 11 -245 75 -68
68 -75 95 -75 309 l0 176 -176 0 c-214 0 -241 7 -309 75 -64 63 -75 100 -75
245 0 145 11 182 75 245 68 68 95 75 309 75 l176 0 0 176 c0 110 5 192 12 218
15 51 99 137 148 153 56 18 268 16 323 -3z"/>
<path d="M2425 2685 l-25 -24 0 -231 0 -231 -25 -24 -24 -25 -231 0 -231 0
-24 -25 c-24 -23 -25 -31 -25 -135 0 -104 1 -112 25 -135 l24 -25 231 0 231 0
24 -25 25 -24 0 -231 0 -231 25 -24 c23 -24 31 -25 135 -25 104 0 112 1 135
25 l25 24 0 231 0 231 25 24 24 25 231 0 231 0 24 25 c24 23 25 31 25 135 0
104 -1 112 -25 135 l-24 25 -231 0 -231 0 -24 25 -25 24 0 231 0 231 -25 24
c-23 24 -31 25 -135 25 -104 0 -112 -1 -135 -25z"/>
<path d="M1920 591 c0 -137 1 -143 25 -166 l24 -25 591 0 591 0 24 25 c24 23
25 29 25 166 0 116 -2 140 -14 136 -31 -12 -247 -57 -331 -69 -116 -17 -474
-17 -590 0 -84 12 -300 57 -331 69 -12 4 -14 -20 -14 -136z"/>
</g>
</svg>
