<?xml version="1.0" standalone="no"?>
<!DOCTYPE svg PUBLIC "-//W3C//DTD SVG 20010904//EN"
 "http://www.w3.org/TR/2001/REC-SVG-20010904/DTD/svg10.dtd">
<svg version="1.0" xmlns="http://www.w3.org/2000/svg"
 width="60" height="60" viewBox="0 0 459.000000 715.000000"
 preserveAspectRatio="xMidYMid meet">

<g transform="translate(0.000000,715.000000) scale(0.100000,-0.100000)"
fill="#000000" stroke="none">
<path d="M3090 7024 c-163 -43 -306 -156 -407 -323 -1 -2 -23 15 -49 38 -53
47 -146 95 -214 110 -66 15 -187 13 -255 -4 -130 -34 -259 -134 -319 -246 -16
-30 -30 -56 -32 -58 -2 -2 -20 10 -41 26 -169 131 -389 151 -575 51 -74 -39
-159 -122 -199 -193 l-31 -55 -36 29 c-115 89 -275 123 -417 86 -185 -49 -326
-204 -355 -392 -8 -50 -10 -372 -7 -1064 4 -864 6 -1006 21 -1089 56 -324 165
-580 357 -841 l49 -66 0 -1436 0 -1435 26 -31 c21 -26 33 -31 68 -31 53 0 82
21 96 68 7 25 10 465 10 1337 0 715 0 1306 0 1313 0 7 28 -11 62 -40 181 -153
539 -339 623 -324 47 9 80 49 80 96 0 52 -30 82 -108 110 -34 13 -105 44 -157
70 -518 260 -855 746 -920 1325 -11 104 -14 969 -2 963 148 -75 225 -93 337
-77 119 16 200 57 284 142 l53 55 35 -39 c90 -100 230 -160 375 -160 149 -1
271 48 372 150 l58 59 58 -58 c136 -136 338 -186 526 -130 37 11 48 9 135 -23
101 -38 290 -97 377 -117 l53 -12 -57 -35 c-238 -143 -387 -348 -429 -588 -8
-48 -15 -112 -15 -142 0 -47 4 -59 29 -84 22 -21 39 -29 66 -29 75 0 100 35
108 155 9 152 86 308 201 412 113 102 285 192 449 234 91 23 124 47 133 94 7
37 -15 89 -44 103 -9 5 -71 17 -137 26 -66 9 -190 33 -275 52 -589 135 -970
382 -997 646 -8 76 1 104 39 124 45 23 173 14 363 -27 134 -29 167 -33 310
-33 112 0 205 7 308 22 191 28 438 45 569 40 91 -3 109 -7 157 -33 172 -95
295 -383 401 -945 17 -91 47 -245 66 -343 59 -305 55 -418 -17 -524 -18 -25
-114 -127 -214 -227 -361 -360 -558 -677 -708 -1141 -69 -213 -108 -408 -127
-649 -6 -74 -10 -474 -10 -933 0 -863 -1 -846 49 -873 35 -18 88 -12 118 14
l28 24 6 909 c6 957 6 952 54 1187 41 199 139 475 238 672 109 217 284 444
522 680 101 99 190 197 214 234 74 114 99 243 82 410 -12 114 -130 735 -172
908 -95 389 -225 634 -395 747 l-54 36 0 277 c0 204 -4 295 -15 346 -47 220
-236 414 -460 471 -75 19 -241 19 -315 -1z m225 -184 c141 -23 266 -117 328
-248 l32 -67 3 -272 3 -273 -73 0 c-126 0 -365 -19 -567 -45 -106 -14 -199
-25 -207 -25 -12 0 -14 49 -14 290 0 268 2 295 21 352 51 151 179 260 339 288
64 11 68 11 135 0z m-880 -208 c68 -33 127 -92 159 -161 19 -42 21 -65 24
-298 2 -139 2 -253 0 -253 -2 0 -70 14 -153 30 -241 48 -353 49 -467 5 -17 -7
-18 8 -18 217 0 282 6 306 93 393 74 73 121 93 227 94 63 1 85 -4 135 -27z
m-865 -173 c96 -43 156 -112 185 -211 14 -49 16 -111 13 -465 -3 -394 -4 -410
-25 -455 -30 -67 -96 -133 -162 -164 -45 -22 -71 -27 -131 -28 -66 -1 -84 3
-143 32 -77 38 -128 94 -158 172 -18 47 -19 80 -19 464 0 491 -1 486 95 582
72 72 119 92 225 93 55 0 87 -5 120 -20z m-838 -175 c64 -21 122 -75 155 -142
l28 -57 0 -370 c0 -368 0 -370 -23 -417 -28 -55 -95 -120 -149 -144 -58 -26
-167 -24 -224 4 -59 29 -116 85 -143 142 -20 43 -21 59 -21 420 l0 375 27 51
c31 58 84 108 142 135 51 23 146 25 208 3z m1349 -1061 c13 -16 12 -17 -3 -4
-10 7 -18 15 -18 17 0 8 8 3 21 -13z"/>
<path d="M1861 2124 c-186 -50 -327 -209 -354 -400 -30 -205 76 -404 263 -498
40 -20 81 -36 91 -36 18 0 19 -11 19 -200 l0 -200 -100 0 c-114 0 -150 -12
-175 -60 -19 -36 -19 -44 0 -85 22 -45 51 -55 169 -55 121 0 119 2 110 -100
-13 -141 19 -210 98 -210 30 0 46 7 69 29 29 29 29 30 29 155 l0 126 114 0
c109 0 116 1 145 26 25 21 31 33 31 66 0 85 -40 108 -190 108 l-100 0 2 196 3
195 50 17 c256 87 392 364 304 620 -80 234 -338 371 -578 306z m247 -215 c173
-86 214 -295 87 -437 -62 -69 -121 -96 -210 -96 -255 -1 -381 300 -201 480 90
90 211 110 324 53z"/>
</g>
</svg>
