<?xml version="1.0" standalone="no"?>
<!DOCTYPE svg PUBLIC "-//W3C//DTD SVG 20010904//EN"
 "http://www.w3.org/TR/2001/REC-SVG-20010904/DTD/svg10.dtd">
<svg version="1.0" xmlns="http://www.w3.org/2000/svg"
 width="60" height="60" viewBox="0 0 400.000000 384.000000"
 preserveAspectRatio="xMidYMid meet">

<g transform="translate(0.000000,384.000000) scale(0.100000,-0.100000)"
fill="#000000" stroke="none">
<path d="M2842 3762 c-16 -53 -78 -138 -217 -297 -285 -327 -347 -464 -300
-664 24 -101 89 -213 177 -305 l77 -81 1 176 c0 246 25 336 154 547 76 125
114 202 131 265 13 49 14 50 14 16 2 -90 -30 -204 -120 -429 -69 -172 -81
-232 -77 -365 l3 -99 118 179 c128 193 217 364 242 460 31 121 12 269 -53 425
-33 78 -109 201 -128 207 -6 2 -16 -14 -22 -35z"/>
<path d="M1195 3244 c-42 -14 -65 -37 -65 -63 1 -9 7 -43 15 -76 24 -99 21
-111 -39 -171 -59 -60 -68 -62 -161 -39 -112 27 -138 15 -152 -69 -7 -44 1
-55 82 -102 35 -20 68 -48 74 -61 16 -36 14 -145 -4 -170 -8 -11 -44 -38 -80
-59 -36 -21 -68 -47 -71 -57 -10 -31 5 -82 31 -107 l25 -24 78 19 c42 10 88
18 102 17 35 -3 130 -99 130 -132 0 -14 -7 -57 -16 -96 -10 -39 -14 -79 -11
-88 10 -25 69 -57 102 -54 25 3 37 14 71 68 65 102 63 100 154 100 91 0 89 2
154 -100 34 -54 46 -65 71 -68 33 -3 92 29 102 54 3 9 -1 49 -11 88 -24 103
-22 111 35 172 59 62 79 66 184 39 33 -9 69 -14 81 -11 36 9 68 100 46 132 -4
6 -37 30 -75 54 -37 23 -72 50 -77 60 -6 10 -10 49 -10 85 0 63 2 69 33 99 18
17 55 45 83 61 42 26 49 35 52 65 1 22 -5 47 -18 68 -23 37 -41 39 -135 17
-92 -22 -100 -21 -160 40 -61 61 -64 72 -40 170 18 75 18 87 2 108 -18 26 -86
47 -111 35 -12 -5 -37 -36 -56 -70 -49 -85 -69 -98 -147 -98 -35 0 -73 5 -83
10 -11 6 -39 41 -64 79 -55 85 -68 94 -121 75z m351 -399 c64 -19 128 -74 161
-139 35 -67 38 -169 7 -237 -81 -176 -313 -219 -449 -84 -54 55 -79 116 -79
195 0 193 174 321 360 265z"/>
<path d="M3440 3019 c-173 -129 -405 -362 -493 -495 -37 -56 -83 -137 -102
-180 -66 -153 -115 -370 -115 -507 l0 -70 49 99 c51 105 172 291 245 378 24
28 113 143 199 256 201 264 235 302 144 160 -95 -148 -150 -246 -242 -428
-105 -210 -227 -514 -212 -529 9 -9 119 27 206 68 221 103 425 278 524 449
123 213 118 521 -13 780 -65 127 -48 125 -190 19z"/>
<path d="M2185 2326 c-16 -12 -17 -18 -6 -60 12 -50 7 -68 -28 -101 -19 -17
-28 -18 -72 -8 -41 8 -53 7 -65 -4 -26 -26 -17 -57 26 -83 22 -14 40 -30 41
-37 1 -7 1 -24 1 -38 0 -14 0 -29 -1 -35 -1 -5 -19 -22 -41 -36 -26 -17 -40
-34 -40 -48 0 -41 13 -48 77 -41 58 7 60 6 87 -25 14 -18 25 -40 22 -49 -18
-66 -17 -80 7 -96 32 -20 47 -13 75 35 22 38 25 40 72 40 46 0 50 -2 71 -40
27 -48 44 -55 76 -34 20 12 23 21 18 42 -3 15 -9 36 -11 48 -4 13 4 32 22 54
27 31 30 32 82 26 61 -7 82 3 82 39 0 16 -11 30 -35 45 -44 27 -51 41 -47 88
3 32 10 42 43 63 42 25 51 56 25 82 -12 11 -24 12 -65 4 -44 -10 -53 -9 -72 8
-35 33 -40 51 -28 101 11 42 10 48 -6 60 -31 23 -50 16 -83 -31 -29 -41 -35
-45 -72 -45 -37 0 -43 4 -72 45 -33 47 -52 54 -83 31z m208 -200 c54 -23 80
-59 84 -118 7 -91 -49 -152 -137 -152 -88 0 -144 61 -137 152 7 99 100 157
190 118z"/>
<path d="M380 2031 c-14 -28 -12 -57 6 -75 13 -14 50 -16 248 -16 213 0 234 2
249 18 22 24 21 55 -1 75 -16 15 -49 17 -255 17 -223 0 -237 -1 -247 -19z"/>
<path d="M3373 1684 l-283 -256 0 -41 c-1 -77 -57 -163 -134 -205 -28 -15 -70
-17 -411 -17 -373 0 -380 0 -380 20 0 20 8 20 365 25 330 5 369 7 403 24 142
71 138 260 -8 327 -37 17 -76 19 -591 19 l-552 0 -73 35 c-140 65 -271 66
-404 0 -60 -29 -97 -61 -265 -230 l-195 -195 315 -315 314 -314 77 74 c84 82
165 127 258 145 33 6 289 10 655 10 565 0 603 2 641 19 27 13 172 152 437 417
334 337 398 405 407 439 15 56 13 84 -8 131 -21 46 -54 74 -88 74 -21 0 -103
-53 -183 -118 -56 -47 -50 -31 14 36 63 67 74 93 52 127 -12 18 -25 25 -49 25
-28 0 -69 -34 -314 -256z"/>
<path d="M100 1830 c-24 -24 -25 -49 -6 -76 14 -18 30 -19 281 -22 298 -3 315
0 315 58 0 57 -16 60 -307 60 -250 0 -264 -1 -283 -20z"/>
<path d="M502 1057 l-172 -172 423 -423 422 -422 173 173 172 172 -423 423
-422 422 -173 -173z m621 -465 c114 -114 207 -212 207 -218 0 -23 -33 -54 -58
-54 -22 0 -67 40 -229 202 -124 124 -203 210 -203 222 0 27 29 56 54 56 15 0
89 -67 229 -208z"/>
</g>
</svg>
