<?xml version="1.0" standalone="no"?>
<!DOCTYPE svg PUBLIC "-//W3C//DTD SVG 20010904//EN"
 "http://www.w3.org/TR/2001/REC-SVG-20010904/DTD/svg10.dtd">
<svg version="1.0" xmlns="http://www.w3.org/2000/svg"
 width="60" height="60" viewBox="0 0 517.000000 496.000000"
 preserveAspectRatio="xMidYMid meet">

<g transform="translate(0.000000,496.000000) scale(0.100000,-0.100000)"
fill="#000000" stroke="none">
<path d="M260 4719 c-55 -25 -95 -62 -123 -114 l-22 -40 -3 -1720 c-3 -1934
-9 -1779 73 -1861 65 -64 109 -74 341 -74 186 0 194 1 218 23 36 32 39 84 6
117 -19 19 -33 20 -204 20 -108 0 -196 5 -215 11 -65 23 -61 -71 -61 1449 l0
1380 1834 0 1834 0 4 -61 c4 -49 9 -66 27 -80 30 -24 82 -24 112 0 l24 19 3
353 c2 231 -1 371 -8 406 -15 70 -61 130 -129 165 l-53 28 -1807 0 c-1795 0
-1806 -1 -1851 -21z m3639 -154 c16 -8 31 -22 35 -30 3 -9 6 -117 6 -240 l0
-223 -1833 1 -1832 2 -3 213 c-3 229 3 263 51 282 12 5 787 9 1785 9 1529 1
1767 -1 1791 -14z"/>
<path d="M2477 4390 c-50 -40 -42 -111 15 -134 29 -11 68 -12 216 -7 60 2 84
90 37 136 -23 24 -31 25 -133 25 -94 0 -113 -3 -135 -20z"/>
<path d="M2978 4391 c-46 -37 -45 -106 4 -132 28 -15 180 -20 230 -7 21 5 42
17 48 28 16 30 12 76 -9 101 -18 22 -27 24 -133 27 -102 3 -116 2 -140 -17z"/>
<path d="M3478 4391 c-46 -36 -45 -106 3 -131 18 -10 137 -16 227 -11 56 3 82
84 43 132 -18 22 -27 24 -133 27 -102 3 -116 2 -140 -17z"/>
<path d="M4559 4222 c-60 -20 -128 -63 -171 -109 -15 -15 -166 -269 -336 -563
-169 -294 -447 -776 -617 -1070 -170 -294 -310 -543 -312 -555 -2 -11 7 -157
21 -324 24 -280 28 -306 48 -328 14 -15 33 -23 53 -23 32 0 566 246 592 273
32 33 1238 2138 1255 2192 15 46 19 78 15 137 -10 150 -96 277 -235 345 -67
33 -84 37 -166 40 -68 2 -105 -2 -147 -15z m210 -157 c128 -45 203 -176 168
-293 -7 -26 -90 -180 -184 -342 -93 -162 -331 -574 -528 -915 -197 -341 -375
-650 -396 -687 l-39 -66 -74 74 c-82 83 -178 135 -284 157 -33 7 -64 16 -68
19 -3 4 126 236 287 515 161 279 418 724 570 988 197 341 287 488 312 508 67
55 156 71 236 42z m-1288 -2259 c89 -42 203 -155 185 -184 -7 -12 -335 -166
-341 -160 -4 4 -34 322 -35 367 0 23 125 9 191 -23z"/>
<path d="M1130 2901 c-69 -21 -130 -73 -166 -141 -18 -33 -19 -76 -19 -930 l0
-895 23 -47 c26 -53 79 -103 129 -124 26 -11 142 -15 579 -17 l546 -2 159
-317 c94 -189 167 -323 181 -332 28 -20 68 -21 93 -2 10 7 91 157 179 332
l161 319 547 2 546 2 51 25 c27 14 61 41 75 59 57 74 56 64 56 611 l0 505 -26
20 c-36 28 -79 27 -109 -4 l-25 -24 0 -489 0 -489 -26 -27 -27 -26 -563 0
c-416 0 -570 -3 -589 -12 -21 -9 -53 -66 -158 -279 -73 -147 -134 -268 -137
-268 -3 -1 -64 116 -135 260 -73 147 -140 269 -154 280 -23 18 -49 19 -593 19
l-569 0 -24 25 -25 24 0 869 0 869 26 24 26 24 1116 3 1116 2 23 22 c29 27 30
77 4 109 l-19 24 -1124 2 c-617 1 -1134 -2 -1148 -6z"/>
<path d="M1320 2564 c-47 -20 -56 -89 -15 -129 l24 -25 859 0 c842 0 860 0
885 20 44 35 43 105 -2 129 -29 16 -1714 20 -1751 5z"/>
<path d="M1306 2219 c-20 -16 -26 -29 -26 -59 0 -30 6 -43 26 -59 27 -21 32
-21 888 -21 931 1 884 -2 906 55 13 34 -2 80 -31 95 -11 6 -346 10 -877 10
-854 0 -859 0 -886 -21z"/>
<path d="M1305 1885 c-50 -49 -23 -127 49 -140 17 -3 370 -5 784 -3 l754 3 24
28 c39 45 29 98 -23 125 -16 9 -226 12 -793 12 l-771 0 -24 -25z"/>
<path d="M1320 1564 c-44 -19 -55 -83 -21 -125 l19 -24 769 -3 c422 -1 778 0
790 3 59 14 81 83 41 130 l-23 26 -774 2 c-560 1 -781 -1 -801 -9z"/>
<path d="M1306 1219 c-20 -16 -26 -29 -26 -59 0 -30 6 -43 26 -59 27 -21 32
-21 886 -21 531 0 866 4 877 10 10 5 24 23 31 40 15 35 0 84 -31 100 -11 6
-346 10 -877 10 -854 0 -859 0 -886 -21z"/>
</g>
</svg>
