<?xml version="1.0" standalone="no"?>
<!DOCTYPE svg PUBLIC "-//W3C//DTD SVG 20010904//EN"
 "http://www.w3.org/TR/2001/REC-SVG-20010904/DTD/svg10.dtd">
<svg version="1.0" xmlns="http://www.w3.org/2000/svg"
 width="60" height="60" viewBox="0 0 453.000000 452.000000"
 preserveAspectRatio="xMidYMid meet">

<g transform="translate(0.000000,452.000000) scale(0.100000,-0.100000)"
fill="#000000" stroke="none">
<path d="M2030 4428 c-498 -43 -1020 -295 -1367 -661 -314 -331 -510 -727
-589 -1192 -24 -138 -24 -445 0 -618 70 -511 281 -927 651 -1286 343 -332 733
-525 1205 -598 176 -27 514 -24 681 5 393 70 748 230 1041 470 99 81 280 269
357 370 225 297 374 658 425 1030 18 130 21 416 6 542 -89 717 -463 1290
-1080 1655 -97 57 -137 67 -164 39 -19 -18 -18 -16 -7 -46 5 -15 50 -48 123
-91 361 -215 640 -516 818 -882 247 -511 283 -1048 104 -1585 -68 -205 -213
-476 -328 -615 l-25 -30 -215 214 c-201 200 -216 213 -243 207 -15 -4 -42 -21
-58 -37 l-31 -29 -67 68 c-37 37 -67 73 -67 79 0 6 23 49 50 94 136 224 146
476 29 716 -41 86 -62 116 -132 186 -163 167 -342 236 -581 225 -191 -9 -347
-78 -481 -213 -330 -329 -287 -872 90 -1141 132 -94 268 -137 430 -138 162 0
295 40 430 130 l57 37 71 -71 70 -71 -31 -36 c-56 -64 -55 -65 179 -301 l211
-212 -53 -42 c-292 -233 -680 -387 -1084 -431 -132 -14 -400 -6 -531 15 -737
123 -1345 612 -1617 1301 -252 635 -170 1366 215 1932 38 55 75 107 83 113 13
11 15 -82 15 -759 0 -674 2 -776 15 -809 20 -47 50 -78 100 -105 38 -21 54
-22 373 -25 l332 -3 0 -135 0 -134 -65 0 -65 0 0 -70 0 -70 275 0 275 0 0 70
0 70 -135 0 -135 0 0 135 0 135 65 0 65 0 0 70 0 70 -444 0 c-438 0 -489 3
-508 33 -4 7 -8 393 -8 858 l0 845 31 30 30 29 1191 0 1190 0 19 -24 c18 -22
19 -48 19 -652 l0 -629 70 0 70 0 0 643 0 644 -23 44 c-13 24 -43 58 -66 74
l-43 30 -1131 5 -1132 5 56 42 c277 206 650 344 1009 373 200 17 231 22 246
45 11 16 11 25 1 45 -12 23 -18 25 -87 26 -41 1 -122 -3 -180 -8z m734 -1924
c150 -39 314 -167 384 -301 179 -341 12 -751 -352 -869 -109 -35 -257 -37
-361 -4 -140 43 -280 153 -350 274 -109 186 -112 419 -9 605 75 134 229 254
379 296 70 19 234 18 309 -1z m828 -1481 c87 -87 158 -163 158 -169 0 -6 -21
-31 -46 -54 l-46 -43 -164 164 -164 164 47 47 c26 27 50 48 53 48 2 0 76 -71
162 -157z"/>
<path d="M2620 2318 l0 -65 57 -12 c77 -15 134 -44 184 -94 46 -46 99 -147 99
-189 0 -52 7 -58 76 -58 l64 0 0 38 c-2 208 -204 425 -410 440 l-70 5 0 -65z"/>
<path d="M2560 4400 c-25 -25 -26 -52 -2 -73 9 -8 64 -26 122 -38 58 -12 115
-24 128 -27 48 -10 82 58 45 90 -14 11 -236 68 -267 68 -3 0 -15 -9 -26 -20z"/>
<path d="M2980 4290 c-27 -27 -25 -56 5 -85 28 -29 51 -31 83 -9 26 18 30 74
6 98 -22 22 -70 20 -94 -4z"/>
<path d="M1596 3620 c-51 -16 -105 -61 -127 -107 -18 -38 -21 -56 -16 -116 l6
-72 -132 -132 -133 -133 51 -50 50 -50 136 136 136 136 43 -12 c39 -10 61 -9
113 6 13 4 46 -21 118 -93 l101 -98 -7 -57 c-8 -81 8 -134 59 -184 67 -67 145
-80 233 -39 39 18 61 36 84 72 29 46 30 52 26 128 l-5 80 98 99 c95 95 99 98
132 91 125 -28 227 30 259 148 39 144 -102 284 -248 247 -117 -29 -182 -144
-150 -263 7 -26 1 -36 -80 -119 -48 -49 -96 -94 -105 -99 -11 -6 -33 -5 -61 2
-33 8 -55 8 -87 -1 l-43 -12 -99 99 -98 98 6 62 c8 80 -12 138 -66 187 -55 50
-125 66 -194 46z m1069 -155 c14 -13 25 -33 25 -45 0 -11 -11 -32 -25 -45 -13
-14 -33 -25 -45 -25 -11 0 -32 11 -45 25 -14 13 -25 34 -25 45 0 12 11 32 25
45 31 32 59 32 90 0z m-483 -482 c18 -16 24 -59 10 -79 -9 -13 -46 -34 -62
-34 -19 0 -60 48 -60 70 0 49 73 78 112 43z"/>
<path d="M900 2660 l0 -70 65 0 65 0 0 70 0 70 -65 0 -65 0 0 -70z"/>
<path d="M890 2385 c0 -108 17 -164 64 -211 47 -48 103 -64 216 -64 l70 0 0
70 0 70 -79 0 c-112 0 -125 12 -129 119 l-4 81 -69 0 -69 0 0 -65z"/>
</g>
</svg>
