<?xml version="1.0" standalone="no"?>
<!DOCTYPE svg PUBLIC "-//W3C//DTD SVG 20010904//EN"
 "http://www.w3.org/TR/2001/REC-SVG-20010904/DTD/svg10.dtd">
<svg version="1.0" xmlns="http://www.w3.org/2000/svg"
 width="60" height="60" viewBox="0 0 526.000000 422.000000"
 preserveAspectRatio="xMidYMid meet">

<g transform="translate(0.000000,422.000000) scale(0.100000,-0.100000)"
fill="#000000" stroke="none">
<path d="M652 4130 c-107 -28 -187 -75 -273 -160 -128 -127 -185 -273 -177
-455 8 -161 62 -286 172 -398 111 -112 240 -168 406 -175 185 -7 321 46 450
177 127 128 175 244 175 426 0 135 -25 222 -95 329 -142 218 -408 321 -658
256z"/>
<path d="M2080 4094 c-182 -48 -321 -192 -365 -376 -11 -49 -15 -137 -15 -390
l0 -328 28 0 c15 0 100 7 190 16 l162 17 0 313 0 312 26 31 c14 17 42 35 62
41 24 6 454 10 1252 10 1137 0 1217 -1 1249 -18 19 -9 44 -30 55 -45 21 -28
21 -37 24 -825 2 -544 0 -809 -8 -834 -6 -20 -24 -48 -41 -62 l-31 -26 -1254
0 c-1149 0 -1257 1 -1280 16 -51 34 -54 53 -54 324 l0 250 -22 -5 c-13 -3 -97
-23 -188 -43 l-165 -38 -3 -212 c-3 -240 7 -304 61 -406 43 -81 128 -166 205
-205 127 -64 62 -62 1475 -59 l1282 3 59 23 c162 61 279 189 321 349 23 87 22
1721 0 1808 -47 179 -207 331 -384 365 -35 6 -498 10 -1320 9 -1077 0 -1274
-2 -1321 -15z"/>
<path d="M4286 3348 c-84 -23 -158 -139 -141 -219 6 -25 -11 -48 -168 -231
l-175 -203 -64 0 -64 0 -120 126 c-114 120 -120 128 -116 162 5 48 -13 101
-51 144 -81 93 -208 96 -293 8 -44 -45 -69 -116 -60 -164 5 -22 -12 -47 -114
-165 l-120 -139 -62 -1 c-88 -1 -146 -36 -182 -108 -45 -90 -26 -183 49 -246
131 -108 322 -17 329 156 l2 58 116 135 117 135 69 0 69 -1 117 -121 c114
-120 116 -123 116 -168 0 -96 59 -176 146 -202 133 -38 253 56 257 201 l2 56
170 199 c169 198 170 198 205 193 108 -15 229 86 230 192 0 93 -66 182 -153
203 -53 14 -58 14 -111 0z"/>
<path d="M2590 2959 c-36 -5 -137 -15 -225 -24 -88 -8 -397 -39 -687 -69
l-527 -53 -103 22 c-212 47 -238 48 -388 21 -250 -47 -438 -116 -507 -188 -31
-32 -32 -37 -43 -162 -34 -420 12 -971 94 -1134 19 -38 51 -90 71 -116 l37
-48 34 -252 c60 -451 134 -812 176 -864 8 -9 74 -12 287 -10 l276 3 22 61
c103 289 239 1335 272 2090 8 175 9 186 32 210 48 51 136 82 409 143 524 119
708 165 758 190 59 30 152 140 152 181 0 11 -45 11 -140 -1z"/>
<path d="M2095 1290 c-198 -66 -301 -274 -234 -473 37 -109 100 -177 214 -229
40 -18 68 -22 135 -22 120 1 186 28 266 109 80 81 107 147 107 260 0 105 -27
176 -94 250 -102 111 -255 151 -394 105z"/>
<path d="M3273 1295 c-191 -59 -307 -258 -259 -445 74 -287 423 -384 629 -175
65 66 99 142 105 231 6 93 -11 160 -58 232 -87 135 -269 204 -417 157z"/>
<path d="M4454 1301 c-104 -27 -207 -112 -252 -209 -24 -50 -27 -69 -27 -157
0 -90 3 -106 29 -159 137 -279 530 -283 670 -8 94 186 18 411 -170 503 -53 26
-80 33 -142 35 -42 2 -91 0 -108 -5z"/>
<path d="M2094 475 c-178 -36 -285 -78 -331 -127 -20 -21 -24 -39 -30 -146
l-6 -122 480 0 c264 0 482 2 484 4 2 3 1 59 -3 126 -5 95 -10 126 -24 141 -39
43 -207 104 -354 129 -36 6 -74 12 -85 14 -11 2 -70 -6 -131 -19z"/>
<path d="M3275 479 c-198 -35 -351 -102 -366 -160 -3 -14 -8 -73 -10 -130 l-4
-104 484 -3 484 -2 -7 117 c-5 87 -12 125 -24 143 -25 36 -132 86 -242 114
-162 41 -204 44 -315 25z"/>
<path d="M4515 493 c-11 -2 -56 -11 -100 -19 -152 -28 -314 -94 -337 -137 -5
-11 -12 -73 -15 -138 l-6 -119 483 0 483 0 -6 127 c-5 125 -6 128 -34 150 -63
51 -227 107 -373 128 -25 4 -52 8 -60 9 -8 2 -24 2 -35 -1z"/>
</g>
</svg>
