<?xml version="1.0" standalone="no"?>
<!DOCTYPE svg PUBLIC "-//W3C//DTD SVG 20010904//EN"
 "http://www.w3.org/TR/2001/REC-SVG-20010904/DTD/svg10.dtd">
<svg version="1.0" xmlns="http://www.w3.org/2000/svg"
 width="60" height="60" viewBox="0 0 512.000000 512.000000"
 preserveAspectRatio="xMidYMid meet">

<g transform="translate(0.000000,512.000000) scale(0.100000,-0.100000)"
fill="#000000" stroke="none">
<path d="M2384 5022 c-42 -33 -44 -51 -44 -326 l0 -265 -57 -41 -58 -41 -7 48
c-5 34 -15 55 -33 71 -50 43 -74 34 -286 -109 -107 -72 -205 -142 -219 -155
-24 -23 -25 -30 -28 -168 l-3 -144 -242 -4 c-215 -4 -249 -7 -307 -26 -196
-65 -363 -231 -426 -425 -21 -65 -28 -110 -33 -216 l-6 -133 -57 -18 c-274
-84 -398 -398 -260 -654 16 -29 23 -51 16 -53 -41 -14 -145 -87 -188 -133
-100 -108 -146 -232 -146 -393 0 -98 12 -133 57 -163 26 -17 52 -19 306 -22
l277 -3 0 -102 c0 -130 19 -219 69 -321 81 -167 239 -297 427 -352 49 -14 115
-18 377 -21 l317 -5 0 -138 c0 -77 5 -149 11 -162 15 -34 691 -468 728 -468
20 0 129 65 362 215 184 119 342 224 352 233 21 21 26 59 26 209 l1 111 283 4
c314 5 347 10 475 75 90 45 205 150 260 236 68 107 94 194 100 330 2 64 6 117
7 117 1 0 28 -11 58 -25 171 -75 349 -46 485 80 181 167 189 437 19 622 -22
23 -54 52 -72 63 l-33 20 -4 99 c-4 117 -18 141 -78 141 -56 0 -71 -23 -73
-112 l-2 -73 -86 -6 c-191 -13 -340 -135 -394 -323 -23 -78 -16 -203 14 -271
11 -26 21 -49 21 -51 0 -2 -119 -4 -265 -4 l-265 0 0 640 0 640 490 0 490 0 0
-98 c0 -113 10 -132 72 -132 58 0 72 26 76 137 5 122 -4 177 -33 211 l-23 27
-199 5 -198 5 -7 80 c-13 163 -73 290 -193 411 -63 64 -98 89 -165 122 -130
64 -175 72 -401 72 l-197 0 -4 71 c-3 65 -6 74 -36 100 -29 26 -40 29 -97 29
l-64 0 -3 446 -3 446 -33 29 -32 29 -151 0 c-84 0 -159 -5 -170 -10 -48 -26
-49 -40 -49 -505 l0 -435 -25 0 -25 0 0 429 c0 244 -4 440 -9 454 -6 14 -20
35 -32 46 -21 19 -34 21 -178 21 -133 0 -159 -3 -177 -18z m246 -207 l0 -75
-70 0 -70 0 0 75 0 75 70 0 70 0 0 -75z m490 0 l0 -75 -70 0 -70 0 0 75 0 75
70 0 70 0 0 -75z m-490 -475 l0 -250 -35 0 -35 0 0 154 c0 165 -8 206 -46 231
-20 13 -24 24 -24 65 l0 50 70 0 70 0 0 -250z m488 3 l-3 -248 -67 -3 -68 -3
0 251 0 250 70 0 70 0 -2 -247z m-1048 -608 l0 -555 -135 0 -135 0 0 465 0
464 132 91 c72 49 133 90 135 90 2 0 3 -250 3 -555z m340 0 l0 -555 -95 0 -95
0 0 494 0 493 93 62 c50 33 93 61 95 61 1 0 2 -250 2 -555z m910 45 c0 -147 2
-162 20 -180 12 -12 33 -20 54 -20 50 0 76 37 76 106 l0 54 188 0 c124 0 204
-5 237 -14 218 -58 384 -262 385 -473 l0 -53 -302 0 c-328 0 -328 0 -357 -57
-8 -15 -11 -230 -11 -738 l0 -717 34 -34 34 -34 301 0 301 0 0 -88 c0 -160
-42 -263 -152 -375 -77 -78 -175 -130 -279 -146 -35 -6 -171 -11 -301 -11
l-237 0 -3 160 c-3 155 -4 160 -28 184 -14 13 -173 119 -353 235 -245 157
-336 211 -359 211 -23 0 -117 -56 -372 -221 -187 -121 -346 -230 -353 -242 -8
-15 -12 -74 -13 -175 l0 -154 -307 4 c-350 5 -386 11 -502 89 -154 103 -231
256 -231 460 l0 96 36 6 c20 3 45 14 55 23 24 21 25 81 2 106 -15 17 -40 18
-375 18 l-358 0 0 60 c0 107 55 230 132 295 18 16 61 41 96 58 71 33 93 33
187 -3 88 -34 215 -33 311 3 90 34 105 34 181 -2 74 -35 142 -100 176 -168 29
-56 50 -152 45 -203 l-3 -35 -65 -3 c-78 -4 -100 -20 -100 -72 0 -54 26 -74
108 -78 86 -5 140 10 177 48 27 29 30 38 33 113 4 104 -18 212 -60 297 -42 83
-143 185 -223 225 -33 17 -62 31 -64 32 -2 1 7 16 19 33 58 82 83 232 56 337
-41 164 -142 276 -295 329 l-66 23 -3 88 c-4 112 11 190 54 280 59 125 181
225 323 267 43 12 102 16 267 16 l213 0 3 -326 3 -326 33 -29 32 -29 840 0
840 0 32 29 33 29 3 114 c3 104 2 116 -18 141 -27 34 -80 37 -110 7 -16 -16
-20 -33 -20 -95 l0 -75 -59 0 -60 0 -3 206 -3 206 -33 29 -32 29 -176 0 c-191
0 -220 -7 -242 -55 -8 -17 -12 -91 -12 -220 l0 -195 -70 0 -70 0 0 380 0 380
380 0 380 0 0 -160z m-270 -440 l0 -160 -100 0 -100 0 0 160 0 160 100 0 100
0 0 -160z m-2191 -435 c100 -55 154 -147 155 -265 1 -88 -21 -144 -79 -208
-56 -63 -133 -97 -220 -96 -95 0 -160 30 -225 101 -148 161 -83 411 127 489
63 24 178 13 242 -21z m3926 -652 c110 -37 192 -167 182 -288 -19 -255 -331
-363 -501 -174 -121 134 -96 323 56 438 55 42 179 53 263 24z m-1973 -779
c134 -86 251 -162 261 -169 15 -11 -13 -32 -234 -174 -138 -90 -257 -165 -264
-167 -13 -5 -521 319 -518 331 1 5 501 333 510 335 1 0 111 -70 245 -156z
m-571 -485 l249 -161 0 -269 0 -268 -252 163 -253 164 -3 266 c-1 146 0 266 3
266 4 0 118 -73 256 -161z m909 -106 l0 -268 -217 -140 c-119 -77 -234 -150
-255 -163 l-38 -23 0 268 0 268 253 162 c138 89 253 162 255 163 1 0 2 -120 2
-267z"/>
<path d="M4731 2065 l-77 -74 -49 49 c-63 63 -103 73 -139 37 -47 -47 -37 -72
67 -175 128 -127 126 -128 274 22 122 122 131 141 92 190 -15 19 -30 26 -56
26 -30 0 -46 -10 -112 -75z"/>
<path d="M3963 2850 c-46 -19 -57 -83 -20 -118 23 -22 30 -22 304 -22 258 0
283 1 304 18 33 27 30 78 -5 109 -27 23 -28 23 -294 22 -147 0 -277 -4 -289
-9z"/>
<path d="M3940 2560 c-43 -43 -14 -113 52 -125 18 -3 147 -5 285 -3 245 3 253
4 274 25 27 27 29 75 4 103 -17 19 -30 20 -307 20 -275 0 -289 -1 -308 -20z"/>
<path d="M3942 2287 c-27 -29 -28 -67 -3 -98 18 -22 28 -24 123 -27 93 -3 106
-2 131 18 34 27 37 80 7 110 -18 18 -33 20 -128 20 -100 0 -110 -2 -130 -23z"/>
</g>
</svg>
